# xmcd CD database file
#
# Track frame offsets:
#	150
#	14066
#	25705
#	39496
#	52834
#	65836
#	78200
#	91668
#	104570
#	118381
#	130427
#	145086
#	156947
#	170198
#	184692
#	198339
#	211533
#	224116
#	238012
#	250850
#	263959
#
# Disc length: 3708 seconds
#
# Revision: 0
# Processed by: cddbd v1.5.1PL0 Copyright (c) Steve Scherf et al.
# Submitted via: CDex 1.50beta9
#
DISCID=360e7a15
DTITLE=Gene Ammons - You can depend on me, CD 3
DYEAR=1900
DGENRE=Jazz
TTITLE0=Cha-Bootie
TTITLE1=Who Put the Sleeping Pills in Rip van Winkle's Coffee
TTITLE2=Gravy
TTITLE3=Easy Glide
TTITLE4=Tenor Elefen
TTITLE5=Goodbye
TTITLE6=You go to my Head
TTITLE7=My foolish Heart
TTITLE8=Walkin'
TTITLE9=I can't give you anything but Love
TTITLE10=Back in your own Backyard
TTITLE11=Sweet Jeannie Lou
TTITLE12=Seven Eleven
TTITLE13=Jug Head Rumble
TTITLE14=Prelude to a Kiss
TTITLE15=When i dream of you
TTITLE16=A Lover is Blue
TTITLE17=Round about I A.M.
TTITLE18=Jug
TTITLE19=Wow
TTITLE20=Blue and sentimental
EXTD=
EXTT0=
EXTT1=
EXTT2=
EXTT3=
EXTT4=
EXTT5=
EXTT6=
EXTT7=
EXTT8=
EXTT9=
EXTT10=
EXTT11=
EXTT12=
EXTT13=
EXTT14=
EXTT15=
EXTT16=
EXTT17=
EXTT18=
EXTT19=
EXTT20=
PLAYORDER=
